<svg width="289" height="248" viewBox="0 0 289 248" fill="none" xmlns="http://www.w3.org/2000/svg">
<rect width="289" height="248" fill="#F5F5F5"/>
<path d="M47 246C46.0608 222.99 43.3974 200.087 41.8889 177.111C39.2397 136.762 38.5299 96.316 38.4444 55.8889C38.4073 38.3148 38.4832 20.6829 39 3.11111C39.0014 3.0633 41.766 17.0228 42.1111 18.5556C53.2932 68.2246 72.312 115.898 88.6667 164C91.6793 172.861 90.7119 170 81.2222 170C55.1971 170 28.7913 168.208 3.44445 174.889C2.85379 175.045 1.22862 174.87 1.66667 174.444C4.62874 171.566 8.05195 169.203 11.2222 166.556C32.5362 148.756 53.8418 131.045 75.7778 114C118.924 80.4729 162.865 49.0068 208.889 19.6667C210.018 18.947 218 11.8582 218 16" stroke="black" stroke-width="3" stroke-linecap="round"/>
<path d="M46 5C52.3482 24.0446 58.8921 42.5343 64 61.9444C65.4693 67.5277 66.707 73.1398 68.7778 78.5556C70.3611 82.6965 73.1115 85.6941 74.5556 90.1111C76.0082 94.5546 74.6603 90.4914 73.5 88.9444C71.533 86.3218 69.6617 83.7276 68.9444 80.5C68.3932 78.0192 66.3484 76.0146 65.9444 73.3889C65.4312 70.0529 65 67.3459 65 63.9444C65 61.1374 63.1058 45.6312 68 48.2222C73.2823 51.0188 75.8739 53.97 78.4444 59.1111C81.1088 64.4399 80.4078 72.7171 80 78.2222C79.8307 80.508 75.5161 89.758 76 90" stroke="black" stroke-width="3" stroke-linecap="round"/>
<path d="M69 2C72.0598 8.57848 74.2869 15.4143 76.4444 22.3333C78.1607 27.8372 81.5271 33.3447 82.9444 38.7778C85.0826 46.9742 86.0603 55.4827 88.5556 63.5556C89.2098 65.6723 87.9628 71.0464 89.9444 70.0556C90.7129 69.6713 89.6617 65.1237 89.5 64.4444C87.9798 58.0595 87.6251 51.0483 89.0556 44.6111C89.3427 43.3189 99.4183 39.11 100.778 40.2222C102.233 41.4131 105 45.674 105 47.5C105 48.9196 105.906 49.2416 106.778 50.2222C108.274 51.9056 107.447 53.7144 108.222 55.5556C109.184 57.8392 111.228 59.6841 112 62" stroke="black" stroke-width="3" stroke-linecap="round"/>
<path d="M113 33C114.107 40.473 118.769 46.6131 120 54" stroke="black" stroke-width="3" stroke-linecap="round"/>
<path d="M103 8.00001C103 9.68726 99.9901 18.8818 102 19C104.901 19.1707 105.922 16.2598 108 16C112.227 15.4716 105.281 4.43778 103 9.00001" stroke="black" stroke-width="3" stroke-linecap="round"/>
<path d="M81 122C86.1503 132.769 92.1487 143.048 97.7778 153.556C99.0007 155.838 100.586 160.586 102 162" stroke="black" stroke-width="3" stroke-linecap="round"/>
<path d="M83 122C88.3683 119.56 108.127 110.366 112.444 119C116.934 127.98 104.652 138.093 98.6667 142.778C96.7422 144.284 94.0519 144.427 91.7222 144.944C90.9584 145.114 92.1941 144.996 92.2222 145C97.6357 145.82 103.591 149.524 108.444 151.556C132.151 161.479 156.599 168.021 180.611 176.833C183.026 177.72 191 179.232 191 183" stroke="black" stroke-width="3" stroke-linecap="round"/>
<path d="M124 128C122.167 131.894 121.596 140.919 125.444 143.778C129.301 146.643 134.137 144.126 132.889 139.444C131.65 134.8 121.827 124.393 126 126.778C130.765 129.5 134.045 136 140.444 136C151.593 136 140.377 122.089 135.444 120.444C131.917 119.268 124.763 118.55 121.5 120C118.7 121.244 118.746 123.591 116.778 125.778C112.776 130.225 114.921 141.595 117.556 146.111C119.758 149.886 120.736 154.64 124.222 157.778C125.792 159.19 134.644 158.116 136.444 157.944C142.427 157.375 147.468 153.899 152.167 150.444C169.495 137.703 183.567 121.951 200 108.222C220.292 91.269 240.999 76.1178 263.833 62.9444C271.196 58.6967 273.581 53.4186 279 48" stroke="black" stroke-width="3" stroke-linecap="round"/>
<path d="M149 128C148.274 121.103 143.146 112 153.944 112C156.802 112 158 112.894 160 115C162.653 117.793 162.246 116.212 160.556 113.556C158.511 110.343 160.808 105.17 165.222 105C171.458 104.76 175.094 107.641 178 112" stroke="black" stroke-width="3" stroke-linecap="round"/>
<path d="M165 74C170.986 82.3278 179.011 89.2978 183.889 98.3889C185.83 102.007 187.893 105.488 190 109" stroke="black" stroke-width="3" stroke-linecap="round"/>
<path d="M173 100C176.717 99.6283 179.919 97.4213 183.333 96.0556C184.483 95.5956 184.836 94.0685 186 94C188.196 93.8708 190 92.0552 190 94" stroke="black" stroke-width="3" stroke-linecap="round"/>
<path d="M203 84C205.776 82.4732 209 80.9396 209 77.5C209 76.0169 207.098 74.6148 205.556 75.0556C200.671 76.4511 199.895 79.0935 198.5 83C195.816 90.516 220 96.7599 220 83" stroke="black" stroke-width="3" stroke-linecap="round"/>
<path d="M202 40C206.575 47.1889 212.753 53.2698 217.333 60.5556C222.128 68.1811 226.123 75.9065 231.111 83.3889C242.169 99.9761 247.559 120.449 260 136" stroke="black" stroke-width="3" stroke-linecap="round"/>
<path d="M207 131C220.286 116.449 235.815 104.23 251.333 92.1667C259.633 85.7155 270.405 76.7748 279 72" stroke="black" stroke-width="3" stroke-linecap="round"/>
<path d="M213 139C221.483 131.169 231.754 125.312 240.389 117.611C245.094 113.415 249.359 110.598 255 107.778C261.71 104.423 268.067 99.843 274.5 95.9444C277.879 93.8968 279.959 90.6597 283.444 88.7778C283.901 88.5314 288.465 86 287 86" stroke="black" stroke-width="3" stroke-linecap="round"/>
</svg>
